<mxfile host="app.diagrams.net" agent="Mozilla/5.0 (X11; Linux x86_64; rv:133.0) Gecko/20100101 Firefox/133.0" version="25.0.1">
  <diagram name="Page-1" id="ytPxN8jn9xWjgPxVdofB">
    <mxGraphModel dx="571" dy="888" grid="1" gridSize="10" guides="1" tooltips="1" connect="1" arrows="1" fold="1" page="1" pageScale="1" pageWidth="850" pageHeight="1100" math="0" shadow="0">
      <root>
        <mxCell id="0" />
        <mxCell id="1" parent="0" />
        <mxCell id="bNUyuZ69UnbhlJSahXvK-21" style="edgeStyle=orthogonalEdgeStyle;rounded=0;orthogonalLoop=1;jettySize=auto;html=1;exitX=0.5;exitY=0;exitDx=0;exitDy=0;entryX=0.5;entryY=1;entryDx=0;entryDy=0;" edge="1" parent="1" source="bNUyuZ69UnbhlJSahXvK-1" target="bNUyuZ69UnbhlJSahXvK-18">
          <mxGeometry relative="1" as="geometry" />
        </mxCell>
        <mxCell id="bNUyuZ69UnbhlJSahXvK-1" value="&lt;u&gt;Customer_ID&lt;/u&gt;" style="rounded=0;whiteSpace=wrap;html=1;" vertex="1" parent="1">
          <mxGeometry x="260" y="300" width="100" height="40" as="geometry" />
        </mxCell>
        <mxCell id="bNUyuZ69UnbhlJSahXvK-2" value="Costumer_Name" style="whiteSpace=wrap;html=1;align=center;" vertex="1" parent="1">
          <mxGeometry x="360" y="300" width="100" height="40" as="geometry" />
        </mxCell>
        <mxCell id="bNUyuZ69UnbhlJSahXvK-3" value="Customer_Phone" style="whiteSpace=wrap;html=1;align=center;" vertex="1" parent="1">
          <mxGeometry x="460" y="300" width="100" height="40" as="geometry" />
        </mxCell>
        <mxCell id="bNUyuZ69UnbhlJSahXvK-26" style="edgeStyle=orthogonalEdgeStyle;rounded=0;orthogonalLoop=1;jettySize=auto;html=1;exitX=0.5;exitY=0;exitDx=0;exitDy=0;entryX=0.5;entryY=1;entryDx=0;entryDy=0;" edge="1" parent="1" source="bNUyuZ69UnbhlJSahXvK-5" target="bNUyuZ69UnbhlJSahXvK-19">
          <mxGeometry relative="1" as="geometry">
            <Array as="points">
              <mxPoint x="210" y="320" />
              <mxPoint x="210" y="320" />
            </Array>
          </mxGeometry>
        </mxCell>
        <mxCell id="bNUyuZ69UnbhlJSahXvK-5" value="&lt;div&gt;&lt;u&gt;Pizza_ID&lt;/u&gt;&lt;/div&gt;" style="whiteSpace=wrap;html=1;align=center;" vertex="1" parent="1">
          <mxGeometry x="160" y="410" width="100" height="40" as="geometry" />
        </mxCell>
        <mxCell id="bNUyuZ69UnbhlJSahXvK-6" value="Pizza_name" style="whiteSpace=wrap;html=1;align=center;" vertex="1" parent="1">
          <mxGeometry x="260" y="410" width="100" height="40" as="geometry" />
        </mxCell>
        <mxCell id="bNUyuZ69UnbhlJSahXvK-7" value="Pizza_Price" style="whiteSpace=wrap;html=1;align=center;" vertex="1" parent="1">
          <mxGeometry x="360" y="410" width="100" height="40" as="geometry" />
        </mxCell>
        <mxCell id="bNUyuZ69UnbhlJSahXvK-8" value="Pizza_recipe" style="whiteSpace=wrap;html=1;align=center;" vertex="1" parent="1">
          <mxGeometry x="460" y="410" width="100" height="40" as="geometry" />
        </mxCell>
        <mxCell id="bNUyuZ69UnbhlJSahXvK-23" style="edgeStyle=orthogonalEdgeStyle;rounded=0;orthogonalLoop=1;jettySize=auto;html=1;exitX=0.5;exitY=0;exitDx=0;exitDy=0;entryX=0.5;entryY=1;entryDx=0;entryDy=0;" edge="1" parent="1" source="bNUyuZ69UnbhlJSahXvK-9" target="bNUyuZ69UnbhlJSahXvK-8">
          <mxGeometry relative="1" as="geometry" />
        </mxCell>
        <mxCell id="bNUyuZ69UnbhlJSahXvK-9" value="&lt;u&gt;Pizza_recipe&lt;/u&gt;" style="whiteSpace=wrap;html=1;align=center;" vertex="1" parent="1">
          <mxGeometry x="160" y="520" width="100" height="40" as="geometry" />
        </mxCell>
        <mxCell id="bNUyuZ69UnbhlJSahXvK-10" value="recipe_ingident" style="whiteSpace=wrap;html=1;align=center;" vertex="1" parent="1">
          <mxGeometry x="260" y="520" width="100" height="40" as="geometry" />
        </mxCell>
        <mxCell id="bNUyuZ69UnbhlJSahXvK-11" value="ingredient_quality" style="whiteSpace=wrap;html=1;align=center;" vertex="1" parent="1">
          <mxGeometry x="360" y="520" width="100" height="40" as="geometry" />
        </mxCell>
        <mxCell id="bNUyuZ69UnbhlJSahXvK-25" style="edgeStyle=orthogonalEdgeStyle;rounded=0;orthogonalLoop=1;jettySize=auto;html=1;exitX=0.5;exitY=0;exitDx=0;exitDy=0;entryX=0.5;entryY=1;entryDx=0;entryDy=0;" edge="1" parent="1" source="bNUyuZ69UnbhlJSahXvK-12" target="bNUyuZ69UnbhlJSahXvK-11">
          <mxGeometry relative="1" as="geometry" />
        </mxCell>
        <mxCell id="bNUyuZ69UnbhlJSahXvK-12" value="&lt;u&gt;recipe_ingridient&lt;/u&gt;" style="whiteSpace=wrap;html=1;align=center;" vertex="1" parent="1">
          <mxGeometry x="160" y="620" width="100" height="40" as="geometry" />
        </mxCell>
        <mxCell id="bNUyuZ69UnbhlJSahXvK-13" value="&lt;div&gt;ingrident_name&lt;/div&gt;" style="whiteSpace=wrap;html=1;align=center;" vertex="1" parent="1">
          <mxGeometry x="260" y="620" width="100" height="40" as="geometry" />
        </mxCell>
        <mxCell id="bNUyuZ69UnbhlJSahXvK-14" value="&lt;div&gt;ingrident_price&lt;/div&gt;" style="whiteSpace=wrap;html=1;align=center;" vertex="1" parent="1">
          <mxGeometry x="360" y="620" width="100" height="40" as="geometry" />
        </mxCell>
        <mxCell id="bNUyuZ69UnbhlJSahXvK-15" value="&lt;u&gt;Order_ID&lt;/u&gt;" style="whiteSpace=wrap;html=1;align=center;" vertex="1" parent="1">
          <mxGeometry x="260" y="190" width="100" height="40" as="geometry" />
        </mxCell>
        <mxCell id="bNUyuZ69UnbhlJSahXvK-16" value="Created_at" style="whiteSpace=wrap;html=1;align=center;" vertex="1" parent="1">
          <mxGeometry x="360" y="190" width="100" height="40" as="geometry" />
        </mxCell>
        <mxCell id="bNUyuZ69UnbhlJSahXvK-17" value="Pizza_quantaty" style="whiteSpace=wrap;html=1;align=center;" vertex="1" parent="1">
          <mxGeometry x="460" y="190" width="100" height="40" as="geometry" />
        </mxCell>
        <mxCell id="bNUyuZ69UnbhlJSahXvK-18" value="Costumer_ID" style="whiteSpace=wrap;html=1;align=center;" vertex="1" parent="1">
          <mxGeometry x="560" y="190" width="100" height="40" as="geometry" />
        </mxCell>
        <mxCell id="bNUyuZ69UnbhlJSahXvK-19" value="&lt;u&gt;Pizza_ID&lt;/u&gt;" style="whiteSpace=wrap;html=1;align=center;" vertex="1" parent="1">
          <mxGeometry x="160" y="190" width="100" height="40" as="geometry" />
        </mxCell>
        <mxCell id="bNUyuZ69UnbhlJSahXvK-20" value="FK" style="text;html=1;align=center;verticalAlign=middle;resizable=0;points=[];autosize=1;strokeColor=none;fillColor=none;" vertex="1" parent="1">
          <mxGeometry x="590" y="160" width="40" height="30" as="geometry" />
        </mxCell>
        <mxCell id="bNUyuZ69UnbhlJSahXvK-22" value="FK" style="text;html=1;align=center;verticalAlign=middle;resizable=0;points=[];autosize=1;strokeColor=none;fillColor=none;" vertex="1" parent="1">
          <mxGeometry x="490" y="370" width="40" height="30" as="geometry" />
        </mxCell>
        <mxCell id="bNUyuZ69UnbhlJSahXvK-24" value="FK" style="text;html=1;align=center;verticalAlign=middle;resizable=0;points=[];autosize=1;strokeColor=none;fillColor=none;" vertex="1" parent="1">
          <mxGeometry x="390" y="490" width="40" height="30" as="geometry" />
        </mxCell>
      </root>
    </mxGraphModel>
  </diagram>
</mxfile>
